<svg xmlns="http://www.w3.org/2000/svg" viewBox="0 0 24 24" fill="#0ea5e9" width="48" height="48">
  <path d="M19 12c0 .34-.03.67-.09 1H19.5c.28 0 .5.22.5.5v1c0 .28-.22.5-.5.5h-1.09c-.64 1.47-1.9 2.57-3.44 2.91l.03.09h1c.28 0 .5.22.5.5v1c0 .28-.22.5-.5.5h-8c-.28 0-.5-.22-.5-.5v-1c0-.28.22-.5.5-.5h1l.03-.09c-1.54-.34-2.8-1.44-3.44-2.91H4.5c-.28 0-.5-.22-.5-.5v-1c0-.28.22-.5.5-.5h.59c-.06-.33-.09-.66-.09-1 0-1.48.58-2.92 1.6-4h-.1c-.28 0-.5-.22-.5-.5v-1c0-.28.22-.5.5-.5h2c.05 0 .09.01.14.02C9.33 5.36 10.62 5 12 5s2.67.36 3.36 1.02c.05-.01.09-.02.14-.02h2c.28 0 .5.22.5.5v1c0 .28-.22.5-.5.5h-.1c1.02 1.08 1.6 2.52 1.6 4zm-3.25 2.5c.69 0 1.25-.56 1.25-1.25s-.56-1.25-1.25-1.25-1.25.56-1.25 1.25.56 1.25 1.25 1.25zM12 9c-1.66 0-3 1.34-3 3s1.34 3 3 3 3-1.34 3-3-1.34-3-3-3zm-3.75 2.5c.69 0 1.25-.56 1.25-1.25s-.56-1.25-1.25-1.25-1.25.56-1.25 1.25.56 1.25 1.25 1.25z"/>
</svg>